<svg width="40" height="36" viewBox="0 0 40 36" fill="none" xmlns="http://www.w3.org/2000/svg">
<path d="M30.8877 2.60315C35.9206 2.60315 40.0009 6.71927 40.001 11.7965V21.9811L40 22.1071C39.9667 24.5914 38.9556 26.8391 37.3398 28.4733V33.6002H36.291C35.8837 33.6001 35.4534 33.4821 35.0703 33.3414C34.6684 33.1939 34.2326 32.9889 33.7891 32.7496C33.0066 32.3276 32.1516 31.7726 31.3438 31.1627C31.2295 31.1685 31.1145 31.172 30.999 31.1735H25.001C22.8735 31.1734 20.9179 30.4363 19.3672 29.2037C19.986 28.7675 20.5056 28.2642 20.9277 27.7428C22.0762 28.5705 23.4819 29.0582 25.001 29.0582H30.9736C31.1723 29.0558 31.3694 29.0448 31.5645 29.026L31.9795 28.986L32.3086 29.2448C33.126 29.8871 34.0071 30.4689 34.7773 30.8844C34.9405 30.9724 35.0967 31.051 35.2432 31.1207V27.5504L35.5889 27.235C36.1697 26.7058 36.6607 26.0799 37.04 25.3834H27.501V23.1871H37.8018C37.8632 22.826 37.8983 22.4555 37.9033 22.0778L37.9043 21.9811V20.3385H29.9199V18.1422H37.9043V15.2955H32.0967V13.0992H37.9043V11.7965C37.9042 7.88751 34.7626 4.71838 30.8877 4.71838H25.001C24.9537 4.71839 24.9064 4.72037 24.8594 4.72131C24.6403 3.99568 24.338 3.30689 23.9668 2.6637C24.3063 2.62501 24.6513 2.60315 25.001 2.60315H30.8877Z" fill="#FCFCFD"/>
<path d="M15.2422 0C19.2806 0.000117114 22.6524 2.88007 23.4502 6.71484C24.6213 10.6795 25.9625 17.7485 25.9678 17.7764H21.8545V19.9727H17.9844C17.9844 21.315 19.324 23.1582 21.0898 23.1582C21.0898 24.6226 19.0483 28.3936 14.5967 28.3936H8.38672C3.75485 28.3934 0.00013738 24.6053 0 19.9326V8.46094C7.60327e-05 3.78818 3.75481 0.000176942 8.38672 0H15.2422ZM17.9033 9.43652C17.0127 9.43652 16.2903 10.165 16.29 11.0635C16.29 11.9621 17.0125 12.6914 17.9033 12.6914C18.7941 12.6913 19.5166 11.9621 19.5166 11.0635C19.5164 10.1651 18.7939 9.43658 17.9033 9.43652Z" fill="#FCFCFD"/>
</svg>
