<svg width="121" height="64" viewBox="0 0 121 64" fill="none" xmlns="http://www.w3.org/2000/svg">
<mask id="path-1-inside-1_22940_483" fill="white">
<path d="M108.5 0.201172C115.127 0.201173 120.5 5.57376 120.5 12.2012V38.2012C120.5 44.8286 115.127 50.2012 108.5 50.2012H74.0977L60.5 63.7988L46.9023 50.2012H12.5C5.87258 50.2012 0.5 44.8286 0.5 38.2012V12.2012C0.5 5.57376 5.87258 0.201172 12.5 0.201172H108.5Z"/>
</mask>
<path d="M108.5 0.201172C115.127 0.201173 120.5 5.57376 120.5 12.2012V38.2012C120.5 44.8286 115.127 50.2012 108.5 50.2012H74.0977L60.5 63.7988L46.9023 50.2012H12.5C5.87258 50.2012 0.5 44.8286 0.5 38.2012V12.2012C0.5 5.57376 5.87258 0.201172 12.5 0.201172H108.5Z" fill="#FCFCFD"/>
<path d="M108.5 0.201172V-1.79883V0.201172ZM120.5 38.2012H122.5H120.5ZM108.5 50.2012V52.2012V50.2012ZM74.0977 50.2012V48.2012H73.2692L72.6834 48.787L74.0977 50.2012ZM60.5 63.7988L59.0858 65.213L60.5 66.6273L61.9142 65.213L60.5 63.7988ZM46.9023 50.2012L48.3166 48.787L47.7308 48.2012H46.9023V50.2012ZM12.5 50.2012V52.2012V50.2012ZM0.5 12.2012H-1.5H0.5ZM12.5 0.201172V-1.79883V0.201172ZM108.5 0.201172V2.20117C114.023 2.20117 118.5 6.67833 118.5 12.2012H120.5H122.5C122.5 4.46919 116.232 -1.79883 108.5 -1.79883V0.201172ZM120.5 12.2012H118.5V38.2012H120.5H122.5V12.2012H120.5ZM120.5 38.2012H118.5C118.5 43.724 114.023 48.2012 108.5 48.2012V50.2012V52.2012C116.232 52.2012 122.5 45.9332 122.5 38.2012H120.5ZM108.5 50.2012V48.2012H74.0977V50.2012V52.2012H108.5V50.2012ZM74.0977 50.2012L72.6834 48.787L59.0858 62.3846L60.5 63.7988L61.9142 65.213L75.5119 51.6154L74.0977 50.2012ZM60.5 63.7988L61.9142 62.3846L48.3166 48.787L46.9023 50.2012L45.4881 51.6154L59.0858 65.213L60.5 63.7988ZM46.9023 50.2012V48.2012H12.5V50.2012V52.2012H46.9023V50.2012ZM12.5 50.2012V48.2012C6.97715 48.2012 2.5 43.724 2.5 38.2012H0.5H-1.5C-1.5 45.9332 4.76802 52.2012 12.5 52.2012V50.2012ZM0.5 38.2012H2.5V12.2012H0.5H-1.5V38.2012H0.5ZM0.5 12.2012H2.5C2.5 6.67832 6.97715 2.20117 12.5 2.20117V0.201172V-1.79883C4.76801 -1.79883 -1.5 4.46919 -1.5 12.2012H0.5ZM12.5 0.201172V2.20117H108.5V0.201172V-1.79883H12.5V0.201172Z" fill="#4A69E8" mask="url(#path-1-inside-1_22940_483)"/>
</svg>
